<svg width="70" height="70" viewBox="0 0 70 70" fill="none" xmlns="http://www.w3.org/2000/svg">
<path d="M9.20703 6.85709H48.4027V63.1415H9.20703V6.85709Z" fill="#ED2025"/>
<path d="M36.249 10.0275H33.7698C33.2508 10.8638 32.517 11.5456 31.645 12.0019C30.7729 12.4582 29.7944 12.6723 28.8115 12.6219C27.8077 12.6589 26.8109 12.4402 25.9148 11.9864C25.0187 11.5326 24.2525 10.8586 23.6883 10.0275H21.3594V4.06583H36.249V10.0275Z" fill="#FCFCFC"/>
<path d="M15.8984 19.3885H20.8699V24.36H15.8984V19.3885Z" fill="#ED2025"/>
<path d="M15.8984 30.0023H20.8699V34.9737H15.8984V30.0023Z" fill="#ED2025"/>
<path d="M15.8984 40.616H20.8699V45.5875H15.8984V40.616Z" fill="#ED2025"/>
<path d="M15.8984 51.2283H20.8699V56.1998H15.8984V51.2283Z" fill="#ED2025"/>
<path d="M53.2995 34.0783L65.6852 60.7075C65.9171 61.2068 65.9412 61.7778 65.7522 62.295C65.5633 62.8121 65.1767 63.233 64.6774 63.4652L62.312 64.5662C62.0649 64.6813 61.7975 64.7466 61.5252 64.7583C61.2528 64.77 60.9808 64.7279 60.7247 64.6345C60.4686 64.541 60.2334 64.398 60.0326 64.2137C59.8318 64.0293 59.6693 63.8072 59.5543 63.56L47.1687 36.9294L45.3633 25.0323L53.2995 34.0783Z" fill="#ED2025"/>
<path d="M64.4959 58.2648L58.3651 61.1158L47.168 36.9294L53.2988 34.0783L64.4959 58.2648Z" fill="#FFE206"/>
<path d="M3.44141 70H54.1652C54.4552 70 54.7334 69.8848 54.9386 69.6796C55.1437 69.4745 55.2589 69.1963 55.2589 68.9062V59.621C55.2589 59.331 55.1437 59.0528 54.9386 58.8476C54.7334 58.6425 54.4552 58.5273 54.1652 58.5273C53.8751 58.5273 53.5969 58.6425 53.3918 58.8476C53.1867 59.0528 53.0714 59.331 53.0714 59.621V67.8125H4.53516V2.1875H53.0714V30.0023C53.0714 30.2924 53.1867 30.5706 53.3918 30.7757C53.5969 30.9808 53.8751 31.096 54.1652 31.096C54.4552 31.096 54.7334 30.9808 54.9386 30.7757C55.1437 30.5706 55.2589 30.2924 55.2589 30.0023V1.09375C55.2589 0.803669 55.1437 0.52547 54.9386 0.320352C54.7334 0.115234 54.4552 0 54.1652 0L3.44141 0C3.15133 0 2.87313 0.115234 2.66801 0.320352C2.46289 0.52547 2.34766 0.803669 2.34766 1.09375V68.9062C2.34766 69.1963 2.46289 69.4745 2.66801 69.6796C2.87313 69.8848 3.15133 70 3.44141 70Z" fill="black"/>
<path d="M36.2465 2.97354H21.3569C21.0668 2.97354 20.7886 3.08878 20.5835 3.29389C20.3784 3.49901 20.2631 3.77721 20.2631 4.06729V5.76479H9.20312C8.91304 5.76479 8.63485 5.88003 8.42973 6.08514C8.22461 6.29026 8.10938 6.56846 8.10938 6.85854V63.1458C8.10938 63.4359 8.22461 63.7141 8.42973 63.9192C8.63485 64.1243 8.91304 64.2396 9.20312 64.2396H48.3988C48.6888 64.2396 48.967 64.1243 49.1721 63.9192C49.3773 63.7141 49.4925 63.4359 49.4925 63.1458V47.2806C49.4925 46.9905 49.3773 46.7123 49.1721 46.5072C48.967 46.3021 48.6888 46.1869 48.3988 46.1869C48.1087 46.1869 47.8305 46.3021 47.6254 46.5072C47.4202 46.7123 47.305 46.9905 47.305 47.2806V62.0477H10.2969V7.95229H20.269V10.0275C20.2688 10.1712 20.2969 10.3135 20.3518 10.4463C20.4067 10.5791 20.4873 10.6997 20.5889 10.8013C20.6905 10.9029 20.8111 10.9835 20.9439 11.0384C21.0767 11.0933 21.219 11.1214 21.3627 11.1212H23.1244C23.8135 11.9568 24.6837 12.6246 25.669 13.0741C26.6544 13.5236 27.7292 13.743 28.8119 13.7156C29.8749 13.752 30.9314 13.5358 31.8947 13.0848C32.858 12.6338 33.7006 11.9609 34.3535 11.1212H36.2494C36.5395 11.1212 36.8177 11.006 37.0228 10.8009C37.2279 10.5958 37.3431 10.3176 37.3431 10.0275V7.95229H47.3079V23.3042C47.3079 23.5942 47.4232 23.8724 47.6283 24.0776C47.8334 24.2827 48.1116 24.3979 48.4017 24.3979C48.6917 24.3979 48.9699 24.2827 49.1751 24.0776C49.3802 23.8724 49.4954 23.5942 49.4954 23.3042V6.85417C49.4954 6.56409 49.3802 6.28589 49.1751 6.08077C48.9699 5.87565 48.6917 5.76042 48.4017 5.76042H37.3402V4.06729C37.3402 3.77721 37.225 3.49901 37.0199 3.29389C36.8147 3.08878 36.5365 2.97354 36.2465 2.97354ZM35.1527 8.93375H33.7644C33.563 8.93385 33.3656 8.98961 33.1939 9.09487C33.0223 9.20013 32.8831 9.35079 32.7917 9.53021C32.3645 10.1881 31.7695 10.7201 31.0681 11.0713C30.3667 11.4225 29.5843 11.5802 28.8017 11.5281C27.9904 11.565 27.1828 11.3974 26.4532 11.0407C25.7237 10.6839 25.0955 10.1495 24.6265 9.48646C24.5307 9.31964 24.3926 9.181 24.2262 9.08448C24.0598 8.98797 23.8709 8.93699 23.6785 8.93667H22.4565V5.16104H35.1585L35.1527 8.93375Z" fill="black"/>
<path d="M21.9666 19.3958C21.9666 19.1057 21.8513 18.8275 21.6462 18.6224C21.4411 18.4173 21.1629 18.3021 20.8728 18.3021H15.8984C15.6084 18.3021 15.3302 18.4173 15.125 18.6224C14.9199 18.8275 14.8047 19.1057 14.8047 19.3958V24.3542C14.8047 24.6442 14.9199 24.9224 15.125 25.1276C15.3302 25.3327 15.6084 25.4479 15.8984 25.4479H20.8699C21.16 25.4479 21.4382 25.3327 21.6433 25.1276C21.8484 24.9224 21.9636 24.6442 21.9636 24.3542L21.9666 19.3958ZM19.7791 23.2735H16.9951V20.4823H19.7791V23.2735Z" fill="black"/>
<path d="M41.0464 20.7812H25.4102C25.1201 20.7812 24.8419 20.8965 24.6368 21.1016C24.4316 21.3067 24.3164 21.5849 24.3164 21.875C24.3164 22.1651 24.4316 22.4433 24.6368 22.6484C24.8419 22.8535 25.1201 22.9688 25.4102 22.9688H41.0464C41.3365 22.9688 41.6147 22.8535 41.8198 22.6484C42.0249 22.4433 42.1402 22.1651 42.1402 21.875C42.1402 21.5849 42.0249 21.3067 41.8198 21.1016C41.6147 20.8965 41.3365 20.7812 41.0464 20.7812Z" fill="black"/>
<path d="M21.9666 30.0023C21.9666 29.7122 21.8513 29.434 21.6462 29.2289C21.4411 29.0238 21.1629 28.9085 20.8728 28.9085H15.8984C15.6084 28.9085 15.3302 29.0238 15.125 29.2289C14.9199 29.434 14.8047 29.7122 14.8047 30.0023V34.9738C14.8047 35.2638 14.9199 35.542 15.125 35.7472C15.3302 35.9523 15.6084 36.0675 15.8984 36.0675H20.8699C21.16 36.0675 21.4382 35.9523 21.6433 35.7472C21.8484 35.542 21.9636 35.2638 21.9636 34.9738L21.9666 30.0023ZM19.7791 33.88H16.9951V31.096H19.7791V33.88Z" fill="black"/>
<path d="M41.0464 31.3935H25.4102C25.1201 31.3935 24.8419 31.5088 24.6368 31.7139C24.4316 31.919 24.3164 32.1972 24.3164 32.4873C24.3164 32.7774 24.4316 33.0556 24.6368 33.2607C24.8419 33.4658 25.1201 33.581 25.4102 33.581H41.0464C41.3365 33.581 41.6147 33.4658 41.8198 33.2607C42.0249 33.0556 42.1402 32.7774 42.1402 32.4873C42.1402 32.1972 42.0249 31.919 41.8198 31.7139C41.6147 31.5088 41.3365 31.3935 41.0464 31.3935Z" fill="black"/>
<path d="M21.9666 40.616C21.9666 40.326 21.8513 40.0478 21.6462 39.8426C21.4411 39.6375 21.1629 39.5223 20.8728 39.5223H15.8984C15.6084 39.5223 15.3302 39.6375 15.125 39.8426C14.9199 40.0478 14.8047 40.326 14.8047 40.616V45.586C14.8047 45.8761 14.9199 46.1543 15.125 46.3594C15.3302 46.5646 15.6084 46.6798 15.8984 46.6798H20.8699C21.16 46.6798 21.4382 46.5646 21.6433 46.3594C21.8484 46.1543 21.9636 45.8761 21.9636 45.586L21.9666 40.616ZM19.7791 44.4923H16.9951V41.7083H19.7791V44.4923Z" fill="black"/>
<path d="M41.0464 42.0073H25.4102C25.1201 42.0073 24.8419 42.1225 24.6368 42.3276C24.4316 42.5328 24.3164 42.811 24.3164 43.101C24.3164 43.3911 24.4316 43.6693 24.6368 43.8744C24.8419 44.0796 25.1201 44.1948 25.4102 44.1948H41.0464C41.3365 44.1948 41.6147 44.0796 41.8198 43.8744C42.0249 43.6693 42.1402 43.3911 42.1402 43.101C42.1402 42.811 42.0249 42.5328 41.8198 42.3276C41.6147 42.1225 41.3365 42.0073 41.0464 42.0073Z" fill="black"/>
<path d="M20.8728 50.1346H15.8984C15.6084 50.1346 15.3302 50.2498 15.125 50.4549C14.9199 50.6601 14.8047 50.9383 14.8047 51.2283V56.1998C14.8047 56.4899 14.9199 56.7681 15.125 56.9732C15.3302 57.1783 15.6084 57.2935 15.8984 57.2935H20.8699C21.16 57.2935 21.4382 57.1783 21.6433 56.9732C21.8484 56.7681 21.9636 56.4899 21.9636 56.1998V51.2283C21.9636 50.9388 21.8488 50.661 21.6443 50.456C21.4398 50.2509 21.1624 50.1354 20.8728 50.1346ZM19.7791 55.106H16.9951V52.3221H19.7791V55.106Z" fill="black"/>
<path d="M41.0464 52.621H25.4102C25.1201 52.621 24.8419 52.7363 24.6368 52.9414C24.4316 53.1465 24.3164 53.4247 24.3164 53.7148C24.3164 54.0049 24.4316 54.2831 24.6368 54.4882C24.8419 54.6933 25.1201 54.8085 25.4102 54.8085H41.0464C41.3365 54.8085 41.6147 54.6933 41.8198 54.4882C42.0249 54.2831 42.1402 54.0049 42.1402 53.7148C42.1402 53.4247 42.0249 53.1465 41.8198 52.9414C41.6147 52.7363 41.3365 52.621 41.0464 52.621Z" fill="black"/>
<path d="M66.675 60.2467L54.2894 33.616C54.2453 33.5221 54.1884 33.4347 54.1202 33.3565L46.184 24.3148C46.0272 24.1406 45.8186 24.0214 45.5889 23.9747C45.3593 23.928 45.1207 23.9564 44.9084 24.0555C44.696 24.1547 44.5211 24.3194 44.4095 24.5254C44.2978 24.7315 44.2553 24.968 44.2882 25.2L46.0834 37.0927C46.1 37.1936 46.1304 37.2918 46.1738 37.3844L58.5594 64.0208C58.7349 64.3984 58.9831 64.7377 59.2897 65.0193C59.5964 65.3009 59.9556 65.5194 60.3467 65.6621C60.7379 65.8049 61.1533 65.8691 61.5693 65.8513C61.9853 65.8334 62.3936 65.7337 62.7711 65.5579L65.138 64.4583C65.8992 64.1024 66.4883 63.4594 66.7764 62.67C67.0645 61.8806 67.0281 61.0092 66.675 60.2467ZM63.0832 57.7135L58.9371 59.6458L48.6194 37.4602L52.7669 35.5308L63.0832 57.7135ZM51.5127 33.7021L48.0288 35.3208L47.008 28.5615L51.5127 33.7021ZM64.7223 61.9208C64.6789 62.0422 64.6116 62.1536 64.5245 62.2485C64.4373 62.3434 64.332 62.4199 64.2148 62.4735L61.848 63.5746C61.7311 63.6291 61.6046 63.66 61.4757 63.6655C61.3469 63.671 61.2182 63.6511 61.0971 63.6068C60.976 63.5625 60.8648 63.4947 60.7699 63.4073C60.675 63.32 60.5983 63.2148 60.5442 63.0977L59.8588 61.6262L64.0063 59.6983L64.6903 61.1698C64.7455 61.2865 64.7768 61.4131 64.7823 61.5421C64.7878 61.671 64.7674 61.7998 64.7223 61.9208Z" fill="black"/>
</svg>
