<svg width="70" height="70" viewBox="0 0 70 70" fill="none" xmlns="http://www.w3.org/2000/svg">
<g clip-path="url(#clip0)">
<path d="M18.8711 18.8708H51.128V51.1277H18.8711V18.8708Z" fill="#ED2025"/>
<path d="M23.3203 18.8708V37.6469C23.3203 40.2936 24.3717 42.8319 26.2432 44.7034C28.1147 46.5749 30.653 47.6263 33.2997 47.6263H51.1307V18.8708H23.3203Z" fill="#ED2025"/>
<path d="M30.5547 18.8708H39.4491V28.4769H30.5547V18.8708Z" fill="#ED2025"/>
<path d="M32.7734 18.8708V23.5462C32.7734 23.9844 32.8597 24.4183 33.0274 24.8231C33.1951 25.228 33.4409 25.5958 33.7507 25.9056C34.0606 26.2155 34.4284 26.4612 34.8332 26.6289C35.238 26.7966 35.6719 26.8829 36.1101 26.8829H39.4438V18.8708H32.7734Z" fill="#FFE206"/>
<path d="M66.4091 32.0833C65.7394 25.0998 62.774 18.5351 57.9767 13.4161C53.1793 8.29706 46.8206 4.91246 39.8951 3.79167L42.3816 1.97458C42.499 1.89064 42.5986 1.78426 42.6747 1.66159C42.7507 1.53891 42.8017 1.40238 42.8247 1.25988C42.8477 1.11738 42.8422 0.971736 42.8086 0.831371C42.7749 0.691006 42.7138 0.558701 42.6287 0.442105C42.5436 0.325508 42.4362 0.226932 42.3128 0.152074C42.1894 0.0772159 42.0524 0.0275604 41.9097 0.00597776C41.767 -0.0156049 41.6214 -0.00868676 41.4814 0.0263323C41.3413 0.0613514 41.2096 0.123777 41.0939 0.210001L36.4082 3.62833C36.2919 3.71276 36.1934 3.81927 36.1183 3.94178C36.0432 4.06429 35.993 4.2004 35.9705 4.34234C35.948 4.48427 35.9537 4.62924 35.9873 4.76897C36.0209 4.9087 36.0816 5.04044 36.1662 5.15667L39.8266 10.1733C39.999 10.4041 40.2555 10.5575 40.5404 10.6003C40.8253 10.643 41.1155 10.5717 41.3481 10.4017C41.5807 10.2317 41.7368 9.97688 41.7826 9.69247C41.8284 9.40807 41.7601 9.11708 41.5926 8.88271L39.4459 5.93542C45.9151 6.95846 51.8606 10.103 56.3472 14.8745C60.8338 19.646 63.6069 25.7735 64.2303 32.2933C64.6001 36.132 64.2101 40.0059 63.0826 43.6939C61.9552 47.3818 60.1123 50.8116 57.6593 53.7873C55.2063 56.763 52.1912 59.2264 48.7862 61.0369C45.3811 62.8473 41.6528 63.9693 37.8141 64.3388C37.524 64.3525 37.2512 64.4809 37.0558 64.6957C36.8604 64.9105 36.7584 65.1942 36.7721 65.4843C36.7858 65.7744 36.9142 66.0471 37.1291 66.2425C37.3439 66.4379 37.6275 66.54 37.9176 66.5263C37.9531 66.5284 37.9886 66.5284 38.0241 66.5263C42.1497 66.1292 46.1567 64.9233 49.8161 62.9773C53.4756 61.0313 56.7158 58.3835 59.3517 55.185C61.9877 51.9865 63.9676 48.3001 65.1785 44.3362C66.3895 40.3724 66.8076 36.2088 66.4091 32.0833Z" fill="black"/>
<path d="M33.8511 64.8433L30.1907 59.8267C30.0196 59.5923 29.7623 59.4355 29.4756 59.3908C29.1888 59.3461 28.896 59.4171 28.6617 59.5882C28.4273 59.7594 28.2705 60.0166 28.2258 60.3034C28.181 60.5901 28.2521 60.8829 28.4232 61.1173L30.6107 64.104C23.5317 63.0333 17.0882 59.4118 12.4933 53.9213C7.89843 48.4307 5.46911 41.4499 5.66269 34.293C5.85627 27.136 8.6594 20.2967 13.5444 15.0626C18.4293 9.82848 25.0592 6.5606 32.1857 5.87416C32.4744 5.84648 32.7403 5.70525 32.9249 5.48155C33.1095 5.25784 33.1977 4.96997 33.1701 4.68125C33.1581 4.53755 33.1175 4.39772 33.0505 4.27C32.9836 4.14228 32.8917 4.02927 32.7804 3.93765C32.6691 3.84602 32.5405 3.77764 32.4023 3.73653C32.2641 3.69543 32.119 3.68244 31.9757 3.69833C24.3307 4.42718 17.2145 7.92113 11.9627 13.5244C6.71092 19.1277 3.68469 26.455 3.45199 34.1312C3.21929 41.8074 5.79611 49.3046 10.6988 55.2157C15.6015 61.1269 22.493 65.0454 30.0799 66.236L27.6328 68.024C27.5154 68.1079 27.4158 68.2143 27.3397 68.337C27.2636 68.4596 27.2126 68.5962 27.1897 68.7387C27.1667 68.8812 27.1722 69.0268 27.2058 69.1672C27.2395 69.3075 27.3006 69.4398 27.3857 69.5564C27.4708 69.673 27.5781 69.7716 27.7015 69.8465C27.8249 69.9213 27.962 69.971 28.1047 69.9926C28.2474 70.0141 28.393 70.0072 28.533 69.9722C28.6731 69.9372 28.8048 69.8748 28.9205 69.7885L33.6061 66.3717C33.7222 66.287 33.8205 66.1804 33.8953 66.0577C33.9701 65.9351 34.0201 65.799 34.0423 65.657C34.0645 65.5151 34.0585 65.3702 34.0247 65.2306C33.9909 65.091 33.93 64.9594 33.8453 64.8433H33.8511Z" fill="black"/>
<path d="M51.1294 17.7771H18.8711C18.581 17.7771 18.3028 17.8923 18.0977 18.0974C17.8926 18.3026 17.7773 18.5808 17.7773 18.8708V51.1292C17.7773 51.4193 17.8926 51.6974 18.0977 51.9026C18.3028 52.1077 18.581 52.2229 18.8711 52.2229H51.1294C51.4195 52.2229 51.6977 52.1077 51.9028 51.9026C52.1079 51.6974 52.2232 51.4193 52.2232 51.1292V18.8708C52.2232 18.5808 52.1079 18.3026 51.9028 18.0974C51.6977 17.8923 51.4195 17.7771 51.1294 17.7771ZM31.6461 19.9646H38.3544V27.3831H31.6461V19.9646ZM50.0357 50.0354H19.9648V19.9646H29.4586V28.4769C29.4586 28.767 29.5738 29.0452 29.7789 29.2503C29.9841 29.4554 30.2623 29.5706 30.5523 29.5706H39.4482C39.7382 29.5706 40.0164 29.4554 40.2216 29.2503C40.4267 29.0452 40.5419 28.767 40.5419 28.4769V19.9646H50.0357V50.0354Z" fill="black"/>
</g>
<defs>
<clipPath id="clip0">
<rect width="70" height="70" fill="white"/>
</clipPath>
</defs>
</svg>
