<svg width="70" height="70" viewBox="0 0 70 70" fill="none" xmlns="http://www.w3.org/2000/svg">
<g clip-path="url(#clip0)">
<path d="M45.3354 56.1881C54.2191 56.1881 61.4208 48.9864 61.4208 40.1027C61.4208 31.219 54.2191 24.0173 45.3354 24.0173C36.4517 24.0173 29.25 31.219 29.25 40.1027C29.25 48.9864 36.4517 56.1881 45.3354 56.1881Z" fill="#ED2025"/>
<path d="M45.2681 42.0904C46.3546 42.0904 47.2354 41.2096 47.2354 40.1231C47.2354 39.0366 46.3546 38.1558 45.2681 38.1558C44.1816 38.1558 43.3008 39.0366 43.3008 40.1231C43.3008 41.2096 44.1816 42.0904 45.2681 42.0904Z" fill="#FFE206"/>
<path d="M15.4802 38.8296C15.4802 38.5395 15.365 38.2613 15.1599 38.0562C14.9547 37.8511 14.6765 37.7358 14.3865 37.7358H1.09375C0.80367 37.7358 0.52547 37.8511 0.320352 38.0562C0.115234 38.2613 0 38.5395 0 38.8296C0 39.1197 0.115234 39.3979 0.320352 39.603C0.52547 39.8081 0.80367 39.9233 1.09375 39.9233H14.3865C14.6765 39.9233 14.9547 39.8081 15.1599 39.603C15.365 39.3979 15.4802 39.1197 15.4802 38.8296Z" fill="black"/>
<path d="M12.9687 28.8458C12.6787 28.8458 12.4005 28.9611 12.1954 29.1662C11.9902 29.3713 11.875 29.6495 11.875 29.9396C11.875 30.2297 11.9902 30.5079 12.1954 30.713C12.4005 30.9181 12.6787 31.0333 12.9687 31.0333H18.8021C19.0922 31.0333 19.3704 30.9181 19.5755 30.713C19.7806 30.5079 19.8958 30.2297 19.8958 29.9396C19.8958 29.6495 19.7806 29.3713 19.5755 29.1662C19.3704 28.9611 19.0922 28.8458 18.8021 28.8458H12.9687Z" fill="black"/>
<path d="M4.03906 22.1258H5.5426C5.83268 22.1258 6.11088 22.0106 6.316 21.8055C6.52112 21.6004 6.63635 21.3222 6.63635 21.0321C6.63635 20.742 6.52112 20.4638 6.316 20.2587C6.11088 20.0536 5.83268 19.9383 5.5426 19.9383H4.03906C3.74898 19.9383 3.47078 20.0536 3.26566 20.2587C3.06055 20.4638 2.94531 20.742 2.94531 21.0321C2.94531 21.3222 3.06055 21.6004 3.26566 21.8055C3.47078 22.0106 3.74898 22.1258 4.03906 22.1258Z" fill="black"/>
<path d="M9.93359 22.1258H23.1461C23.4362 22.1258 23.7144 22.0106 23.9195 21.8055C24.1246 21.6004 24.2398 21.3222 24.2398 21.0321C24.2398 20.742 24.1246 20.4638 23.9195 20.2587C23.7144 20.0536 23.4362 19.9383 23.1461 19.9383H9.93359C9.64351 19.9383 9.36531 20.0536 9.1602 20.2587C8.95508 20.4638 8.83984 20.742 8.83984 21.0321C8.83984 21.3222 8.95508 21.6004 9.1602 21.8055C9.36531 22.0106 9.64351 22.1258 9.93359 22.1258Z" fill="black"/>
<path d="M45.3273 15.4758C41.4114 15.4671 37.5499 16.3926 34.0635 18.1756C30.5771 19.9586 27.5663 22.5477 25.2812 25.7277C22.9962 28.9078 21.5027 32.5871 20.9249 36.4601C20.3471 40.3331 20.7016 44.2881 21.959 47.9967H10.6875C10.3974 47.9967 10.1192 48.1119 9.9141 48.317C9.70898 48.5221 9.59375 48.8003 9.59375 49.0904C9.59375 49.3805 9.70898 49.6587 9.9141 49.8638C10.1192 50.0689 10.3974 50.1842 10.6875 50.1842H31.4396C33.947 53.5934 37.6412 55.939 41.7932 56.7581C45.9453 57.5771 50.2535 56.8102 53.8678 54.6086C57.482 52.407 60.1398 48.9306 61.3167 44.8655C62.4936 40.8004 62.104 36.4418 60.2248 32.6498C58.3457 28.8579 55.1135 25.9079 51.1661 24.3822C47.2187 22.8565 42.8427 22.8657 38.9018 24.4081C34.9608 25.9506 31.7411 28.9141 29.8781 32.714C28.015 36.5139 27.6439 40.8741 28.8379 44.9342C28.9193 45.2126 29.108 45.4474 29.3625 45.5867C29.617 45.7261 29.9164 45.7586 30.1949 45.6772C30.4734 45.5958 30.7081 45.4071 30.8474 45.1526C30.9868 44.8981 31.0193 44.5987 30.9379 44.3202C29.8865 40.7743 30.1776 36.9654 31.7557 33.6205C33.3337 30.2755 36.0882 27.6288 39.4934 26.1853C42.8986 24.7419 46.716 24.6029 50.2172 25.7948C53.7184 26.9868 56.6581 29.4262 58.4752 32.6475C60.2923 35.8688 60.8597 39.6464 60.069 43.2594C59.2783 46.8724 57.1849 50.0677 54.1883 52.2355C51.1918 54.4034 47.5019 55.3919 43.8229 55.0124C40.1439 54.633 36.7335 52.9122 34.2425 50.1783H36.43C36.7201 50.1783 36.9983 50.0631 37.2034 49.858C37.4085 49.6529 37.5237 49.3747 37.5237 49.0846C37.5237 48.7945 37.4085 48.5163 37.2034 48.3112C36.9983 48.1061 36.7201 47.9908 36.43 47.9908H24.2617C22.2643 42.6285 22.3892 36.706 24.6107 31.4326C26.8323 26.1592 30.983 21.9327 36.2154 19.6161C41.4477 17.2995 47.367 17.0676 52.7645 18.9676C58.1621 20.8676 62.6309 24.7563 65.2583 29.8396C67.8858 34.923 68.4737 40.8176 66.9022 46.3198C65.3306 51.8219 61.718 56.5167 56.8021 59.4455C51.8862 62.3743 46.0377 63.3161 40.4509 62.0787C34.8641 60.8413 29.9603 57.5179 26.7408 52.7873C26.6622 52.6631 26.5594 52.5559 26.4385 52.4723C26.3176 52.3887 26.1811 52.3302 26.0372 52.3004C25.8932 52.2707 25.7447 52.2702 25.6006 52.299C25.4564 52.3278 25.3195 52.3854 25.1981 52.4682C25.0767 52.5511 24.9732 52.6575 24.8937 52.7812C24.8143 52.905 24.7606 53.0434 24.7358 53.1883C24.711 53.3332 24.7157 53.4816 24.7495 53.6247C24.7833 53.7677 24.8455 53.9025 24.9325 54.021C27.3247 57.539 30.5859 60.3787 34.3994 62.2643C38.213 64.1498 42.4493 65.0173 46.6971 64.7824C50.9448 64.5474 55.0597 63.2181 58.642 60.9235C62.2244 58.6289 65.1526 55.4469 67.1422 51.6866C69.1319 47.9263 70.1153 43.7154 69.9972 39.4628C69.8791 35.2101 68.6633 31.0603 66.468 27.4163C64.2726 23.7722 61.1723 20.7577 57.4681 18.6656C53.7638 16.5734 49.5815 15.4746 45.3273 15.4758Z" fill="black"/>
<path d="M48.299 39.3283C48.1989 38.9389 48.0222 38.5733 47.7793 38.2528C47.5365 37.9323 47.2323 37.6634 46.8844 37.4617C46.1839 37.0517 45.3492 36.9367 44.5639 37.1417C43.7786 37.3468 43.1068 37.8553 42.6961 38.5554C42.334 39.1895 42.2103 39.9321 42.3475 40.6493C42.4846 41.3665 42.8735 42.0111 43.444 42.4669C44.0145 42.9226 44.729 43.1596 45.4588 43.1349C46.1886 43.1103 46.8856 42.8257 47.424 42.3325L53.6817 45.9112C53.8065 45.9918 53.9465 46.0462 54.0929 46.0709C54.2394 46.0957 54.3894 46.0903 54.5338 46.0552C54.6782 46.02 54.8138 45.9558 54.9326 45.8665C55.0513 45.7772 55.1506 45.6647 55.2244 45.5357C55.2982 45.4068 55.3449 45.2641 55.3618 45.1165C55.3787 44.9689 55.3653 44.8194 55.3224 44.6772C55.2796 44.5349 55.2083 44.4029 55.1127 44.2891C55.0172 44.1753 54.8994 44.0822 54.7667 44.0154L48.3807 40.3623C48.4124 40.0155 48.3848 39.6658 48.299 39.3283ZM46.0867 40.5417C46.0142 40.6661 45.912 40.7707 45.7894 40.8461C45.6667 40.9216 45.5273 40.9657 45.3835 40.9743C45.2397 40.983 45.0961 40.956 44.9652 40.8959C44.8344 40.8357 44.7204 40.7441 44.6334 40.6293C44.5464 40.5145 44.4891 40.38 44.4666 40.2378C44.4441 40.0955 44.457 39.9499 44.5043 39.8138C44.5515 39.6778 44.6316 39.5555 44.7375 39.4578C44.8434 39.3601 44.9717 39.2901 45.1111 39.254C45.3358 39.1966 45.574 39.2296 45.7746 39.3458C45.9744 39.4632 46.1194 39.655 46.1779 39.8792C46.2364 40.1034 46.2036 40.3416 46.0867 40.5417Z" fill="black"/>
<path d="M62.9756 20.6879C63.1191 20.6874 63.261 20.6584 63.3932 20.6026C63.5254 20.5467 63.6452 20.4652 63.7456 20.3627L64.9123 19.2179L65.6895 19.9967C65.8947 20.2019 66.173 20.3171 66.4632 20.3171C66.7534 20.3171 67.0317 20.2019 67.2368 19.9967C67.442 19.7915 67.5573 19.5132 67.5573 19.223C67.5573 18.9329 67.442 18.6546 67.2368 18.4494L64.2531 15.4656C64.0456 15.2726 63.7712 15.1677 63.4879 15.173C63.2045 15.1782 62.9343 15.2933 62.7341 15.4939C62.5339 15.6944 62.4193 15.9649 62.4146 16.2483C62.4099 16.5316 62.5153 16.8058 62.7087 17.0129L63.3693 17.6721L62.2027 18.8213C62.0499 18.9742 61.9459 19.169 61.9038 19.3811C61.8617 19.5931 61.8833 19.8129 61.966 20.0126C62.0487 20.2123 62.1888 20.3831 62.3684 20.5033C62.5481 20.6235 62.7594 20.6877 62.9756 20.6879Z" fill="black"/>
<path d="M39.3281 11.8358H41.2794V12.9675C41.2794 13.2576 41.3946 13.5358 41.5997 13.7409C41.8048 13.946 42.083 14.0613 42.3731 14.0613C42.6632 14.0613 42.9414 13.946 43.1465 13.7409C43.3516 13.5358 43.4669 13.2576 43.4669 12.9675V10.7421C43.4669 10.452 43.3516 10.1738 43.1465 9.96868C42.9414 9.76357 42.6632 9.64833 42.3731 9.64833H40.4219V7.37187H50.1139V9.67604H48.2721C47.982 9.67604 47.7038 9.79127 47.4987 9.99639C47.2936 10.2015 47.1783 10.4797 47.1783 10.7698V12.9675C47.1783 13.2576 47.2936 13.5358 47.4987 13.7409C47.7038 13.946 47.982 14.0613 48.2721 14.0613C48.5622 14.0613 48.8404 13.946 49.0455 13.7409C49.2506 13.5358 49.3658 13.2576 49.3658 12.9675V11.8635H51.2106C51.5007 11.8635 51.7789 11.7483 51.984 11.5432C52.1891 11.3381 52.3044 11.0599 52.3044 10.7698V6.27812C52.3044 5.98804 52.1891 5.70984 51.984 5.50472C51.7789 5.29961 51.5007 5.18437 51.2106 5.18437H39.3281C39.038 5.18437 38.7598 5.29961 38.5547 5.50472C38.3496 5.70984 38.2344 5.98804 38.2344 6.27812V10.7421C38.2344 11.0322 38.3496 11.3104 38.5547 11.5155C38.7598 11.7206 39.038 11.8358 39.3281 11.8358Z" fill="black"/>
</g>
<defs>
<clipPath id="clip0">
<rect width="70" height="70" fill="white"/>
</clipPath>
</defs>
</svg>
