<?xml version="1.0" encoding="UTF-8"?>
<svg width="21px" height="22px" viewBox="0 0 21 22" version="1.1" xmlns="http://www.w3.org/2000/svg" xmlns:xlink="http://www.w3.org/1999/xlink">
    <title>Shape</title>
    <g id="Page-1" stroke="none" stroke-width="1" fill="none" fill-rule="evenodd">
        <path d="M8.85938,15.1855 C8.85938,15.6367 9.39258,15.8418 9.67969,15.5547 L13.6992,11.4941 C13.9043,11.2891 13.9043,11.002 13.6992,10.7969 L9.67969,6.73633 C9.39258,6.4082 8.85938,6.6543 8.85938,7.10547 L8.85938,15.1855 Z M10.5,0.953125 C4.88086,0.953125 0.328125,5.50586 0.328125,11.125 C0.328125,16.7441 4.88086,21.2969 10.5,21.2969 C16.1191,21.2969 20.6719,16.7441 20.6719,11.125 C20.6719,5.50586 16.1191,0.953125 10.5,0.953125 Z M10.5,2.92188 C15.0117,2.92188 18.7031,6.61328 18.7031,11.125 C18.7031,15.6777 15.0117,19.3281 10.5,19.3281 C5.94727,19.3281 2.29688,15.6777 2.29688,11.125 C2.29688,6.61328 5.94727,2.92188 10.5,2.92188 Z" id="Shape" fill="#ed2025" fill-rule="nonzero"></path>
    </g>
</svg>