<svg width="95" height="94" viewBox="0 0 95 94" fill="none" xmlns="http://www.w3.org/2000/svg">
<path d="M3.80947 41.8121L3.80965 41.8119L41.7935 3.80805C41.7943 3.80734 41.795 3.80662 41.7957 3.80591C43.5891 2.03178 46.074 1 48.5837 1H83.414C88.6968 1 93.005 5.30824 93.005 10.591V45.4213C93.005 47.9553 91.9902 50.4182 90.2005 52.2079L52.2163 90.1921C52.2158 90.1926 52.2152 90.1931 52.2147 90.1937C50.3288 92.0607 47.8867 93 45.4263 93C42.9625 93 40.5026 92.0583 38.6398 90.1955L3.80947 55.3652L3.80775 55.3635C0.0650308 51.6388 0.0625629 45.559 3.80947 41.8121Z" fill="#ED2025" stroke="black" stroke-width="2"/>
<path d="M83.1602 15.9864C83.1602 18.8276 80.8569 21.1309 78.0156 21.1309C75.1744 21.1309 72.8711 18.8276 72.8711 15.9864C72.8711 13.1451 75.1744 10.8418 78.0156 10.8418C80.8569 10.8418 83.1602 13.1451 83.1602 15.9864Z" fill="white" stroke="black" stroke-width="2.5"/>
<path d="M45.8164 25.9197C47.505 24.2311 49.4321 23.3739 51.5976 23.3481C53.776 23.3352 55.7095 24.1731 57.3981 25.8617C59.1124 27.576 59.9438 29.516 59.8923 31.6815C59.8665 33.847 58.9771 35.8063 57.2241 37.5593L55.8513 38.9321C54.1498 40.6336 52.2163 41.4843 50.0508 41.4843C47.9111 41.4843 46.0098 40.6529 44.347 38.9901C42.6713 37.3144 41.8205 35.3938 41.7948 33.2283C41.7819 31.0499 42.6713 29.0648 44.463 27.2731L45.8164 25.9197ZM46.9959 30.0767C45.9905 31.0821 45.4426 32.1971 45.3524 33.4216C45.2751 34.6333 45.7133 35.7161 46.6672 36.6699C47.5824 37.5851 48.6329 38.004 49.8188 37.9267C51.0175 37.8622 52.1647 37.2822 53.2604 36.1865L54.6718 34.7751C55.6773 33.7697 56.2315 32.6611 56.3346 31.4495C56.4378 30.2378 56.0124 29.1551 55.0585 28.2012C54.1047 27.2474 53.0219 26.822 51.8103 26.9251C50.5986 27.0282 49.4643 27.6083 48.4073 28.6652L46.9959 30.0767ZM43.6896 55.4635C45.3782 53.7749 47.2988 52.9242 49.4514 52.9113C51.6298 52.8984 53.5633 53.7362 55.2519 55.4248C56.9405 57.1134 57.7848 59.0405 57.7848 61.206C57.7848 63.3715 56.8889 65.3501 55.0972 67.1418L53.7244 68.5146C52.0358 70.2032 50.1024 71.0539 47.9239 71.0668C45.7713 71.0797 43.8572 70.2483 42.1815 68.5726C40.5058 66.8969 39.655 64.9763 39.6293 62.8108C39.6164 60.6324 40.5058 58.6473 42.2975 56.8556L43.6896 55.4635ZM44.8497 59.6398C43.8314 60.6581 43.2771 61.7796 43.1869 63.0041C43.1095 64.2158 43.5478 65.2985 44.5017 66.2524C45.4297 67.1805 46.4867 67.6058 47.6726 67.5285C48.8714 67.4383 50.0186 66.8453 51.1142 65.7497L52.545 64.3189C53.5633 63.3006 54.1111 62.1856 54.1885 60.974C54.2787 59.7752 53.8533 58.7053 52.9124 57.7643C51.9972 56.8492 50.9273 56.4238 49.7028 56.4882C48.504 56.5527 47.3632 57.1263 46.2805 58.2091L44.8497 59.6398ZM31.8179 53.1433L31.0639 49.837L66.8142 41.581L67.5683 44.8873L31.8179 53.1433Z" fill="white"/>
</svg>
