<svg width="124" height="28" viewBox="0 0 124 28" fill="none" xmlns="http://www.w3.org/2000/svg">
<path d="M8 14C8 16.2091 6.20914 18 4 18C1.79086 18 0 16.2091 0 14C0 11.7909 1.79086 10 4 10C6.20914 10 8 11.7909 8 14Z" fill="#E4E4E4"/>
<path d="M37 14C37 16.2091 35.2091 18 33 18C30.7909 18 29 16.2091 29 14C29 11.7909 30.7909 10 33 10C35.2091 10 37 11.7909 37 14Z" fill="#E4E4E4"/>
<path d="M66 14C66 16.2091 64.2091 18 62 18C59.7909 18 58 16.2091 58 14C58 11.7909 59.7909 10 62 10C64.2091 10 66 11.7909 66 14Z" fill="#E4E4E4"/>
<path d="M95 14C95 16.2091 93.2091 18 91 18C88.7909 18 87 16.2091 87 14C87 11.7909 88.7909 10 91 10C93.2091 10 95 11.7909 95 14Z" fill="#E4E4E4"/>
<path d="M124 14C124 16.2091 122.209 18 120 18C117.791 18 116 16.2091 116 14C116 11.7909 117.791 10 120 10C122.209 10 124 11.7909 124 14Z" fill="#E4E4E4"/>
<rect x="55" width="16" height="28" fill="white"/>
<path d="M57.4613 28.0006C55.292 28.0006 54.169 25.2642 55.7228 23.6574L65.0613 14.0006L55.7228 4.34377C54.769 3.35741 54.769 1.73468 55.7228 0.748318C56.6766 -0.238046 58.2459 -0.238046 59.1997 0.748318L70.2766 12.2029C71.2305 13.1892 71.2305 14.812 70.2766 15.7983L59.1997 27.2529C58.7228 27.746 58.092 28.0006 57.4613 28.0006Z" fill="#ED2025"/>
</svg>
